<mxfile host="app.diagrams.net" modified="2024-05-20T07:35:12.565Z" agent="Mozilla/5.0 (Windows NT 10.0; Win64; x64) AppleWebKit/537.36 (KHTML, like Gecko) Chrome/124.0.0.0 Safari/537.36" etag="0V86bwjBSugQthHGVo7y" version="24.4.0" type="device">
  <diagram id="C5RBs43oDa-KdzZeNtuy" name="Page-1">
    <mxGraphModel dx="1750" dy="942" grid="1" gridSize="10" guides="1" tooltips="1" connect="1" arrows="1" fold="1" page="1" pageScale="1" pageWidth="827" pageHeight="1169" math="0" shadow="0">
      <root>
        <mxCell id="WIyWlLk6GJQsqaUBKTNV-0" />
        <mxCell id="WIyWlLk6GJQsqaUBKTNV-1" parent="WIyWlLk6GJQsqaUBKTNV-0" />
        <mxCell id="uml9mmWz9CMmcLbdp92g-19" value="TourRequest" style="swimlane;fontStyle=2;align=center;verticalAlign=top;childLayout=stackLayout;horizontal=1;startSize=26;horizontalStack=0;resizeParent=1;resizeLast=0;collapsible=1;marginBottom=0;rounded=0;shadow=0;strokeWidth=1;fillColor=#FAE5C7;strokeColor=#0F8B8D;labelBackgroundColor=none;fontColor=#143642;" parent="WIyWlLk6GJQsqaUBKTNV-1" vertex="1">
          <mxGeometry x="70" y="640" width="500" height="472" as="geometry">
            <mxRectangle x="220" y="120" width="160" height="26" as="alternateBounds" />
          </mxGeometry>
        </mxCell>
        <mxCell id="uml9mmWz9CMmcLbdp92g-20" value="Id: int " style="text;align=left;verticalAlign=top;spacingLeft=4;spacingRight=4;overflow=hidden;rotatable=0;points=[[0,0.5],[1,0.5]];portConstraint=eastwest;labelBackgroundColor=none;fontColor=#143642;" parent="uml9mmWz9CMmcLbdp92g-19" vertex="1">
          <mxGeometry y="26" width="500" height="26" as="geometry" />
        </mxCell>
        <mxCell id="uml9mmWz9CMmcLbdp92g-21" value="Status: TourRequestStatus " style="text;align=left;verticalAlign=top;spacingLeft=4;spacingRight=4;overflow=hidden;rotatable=0;points=[[0,0.5],[1,0.5]];portConstraint=eastwest;rounded=0;shadow=0;html=0;labelBackgroundColor=none;fontColor=#143642;" parent="uml9mmWz9CMmcLbdp92g-19" vertex="1">
          <mxGeometry y="52" width="500" height="26" as="geometry" />
        </mxCell>
        <mxCell id="uml9mmWz9CMmcLbdp92g-22" value="City: string " style="text;align=left;verticalAlign=top;spacingLeft=4;spacingRight=4;overflow=hidden;rotatable=0;points=[[0,0.5],[1,0.5]];portConstraint=eastwest;rounded=0;shadow=0;html=0;labelBackgroundColor=none;fontColor=#143642;" parent="uml9mmWz9CMmcLbdp92g-19" vertex="1">
          <mxGeometry y="78" width="500" height="32" as="geometry" />
        </mxCell>
        <mxCell id="uml9mmWz9CMmcLbdp92g-23" value="Country: string" style="text;align=left;verticalAlign=top;spacingLeft=4;spacingRight=4;overflow=hidden;rotatable=0;points=[[0,0.5],[1,0.5]];portConstraint=eastwest;rounded=0;shadow=0;html=0;labelBackgroundColor=none;fontColor=#143642;" parent="uml9mmWz9CMmcLbdp92g-19" vertex="1">
          <mxGeometry y="110" width="500" height="32" as="geometry" />
        </mxCell>
        <mxCell id="uml9mmWz9CMmcLbdp92g-24" value="Description: string " style="text;align=left;verticalAlign=top;spacingLeft=4;spacingRight=4;overflow=hidden;rotatable=0;points=[[0,0.5],[1,0.5]];portConstraint=eastwest;rounded=0;shadow=0;html=0;labelBackgroundColor=none;fontColor=#143642;" parent="uml9mmWz9CMmcLbdp92g-19" vertex="1">
          <mxGeometry y="142" width="500" height="32" as="geometry" />
        </mxCell>
        <mxCell id="uml9mmWz9CMmcLbdp92g-25" value="Language: string" style="text;align=left;verticalAlign=top;spacingLeft=4;spacingRight=4;overflow=hidden;rotatable=0;points=[[0,0.5],[1,0.5]];portConstraint=eastwest;rounded=0;shadow=0;html=0;labelBackgroundColor=none;fontColor=#143642;" parent="uml9mmWz9CMmcLbdp92g-19" vertex="1">
          <mxGeometry y="174" width="500" height="32" as="geometry" />
        </mxCell>
        <mxCell id="uml9mmWz9CMmcLbdp92g-26" value="StartDate: DateTime " style="text;align=left;verticalAlign=top;spacingLeft=4;spacingRight=4;overflow=hidden;rotatable=0;points=[[0,0.5],[1,0.5]];portConstraint=eastwest;rounded=0;shadow=0;html=0;labelBackgroundColor=none;fontColor=#143642;" parent="uml9mmWz9CMmcLbdp92g-19" vertex="1">
          <mxGeometry y="206" width="500" height="32" as="geometry" />
        </mxCell>
        <mxCell id="uml9mmWz9CMmcLbdp92g-27" value="EndDate: DateTime " style="text;align=left;verticalAlign=top;spacingLeft=4;spacingRight=4;overflow=hidden;rotatable=0;points=[[0,0.5],[1,0.5]];portConstraint=eastwest;rounded=0;shadow=0;html=0;labelBackgroundColor=none;fontColor=#143642;" parent="uml9mmWz9CMmcLbdp92g-19" vertex="1">
          <mxGeometry y="238" width="500" height="32" as="geometry" />
        </mxCell>
        <mxCell id="uml9mmWz9CMmcLbdp92g-28" value="AcceptedDate: DateTime " style="text;align=left;verticalAlign=top;spacingLeft=4;spacingRight=4;overflow=hidden;rotatable=0;points=[[0,0.5],[1,0.5]];portConstraint=eastwest;rounded=0;shadow=0;html=0;labelBackgroundColor=none;fontColor=#143642;" parent="uml9mmWz9CMmcLbdp92g-19" vertex="1">
          <mxGeometry y="270" width="500" height="32" as="geometry" />
        </mxCell>
        <mxCell id="uml9mmWz9CMmcLbdp92g-29" value="RequestedDate: DateTime " style="text;align=left;verticalAlign=top;spacingLeft=4;spacingRight=4;overflow=hidden;rotatable=0;points=[[0,0.5],[1,0.5]];portConstraint=eastwest;rounded=0;shadow=0;html=0;labelBackgroundColor=none;fontColor=#143642;" parent="uml9mmWz9CMmcLbdp92g-19" vertex="1">
          <mxGeometry y="302" width="500" height="32" as="geometry" />
        </mxCell>
        <mxCell id="uml9mmWz9CMmcLbdp92g-30" value="" style="line;html=1;strokeWidth=1;align=left;verticalAlign=middle;spacingTop=-1;spacingLeft=3;spacingRight=3;rotatable=0;labelPosition=right;points=[];portConstraint=eastwest;labelBackgroundColor=none;fillColor=#FAE5C7;strokeColor=#0F8B8D;fontColor=#143642;" parent="uml9mmWz9CMmcLbdp92g-19" vertex="1">
          <mxGeometry y="334" width="500" height="8" as="geometry" />
        </mxCell>
        <mxCell id="uml9mmWz9CMmcLbdp92g-31" value="+ AcceptRequest(GuideId: int,acceptedDate: DateTime): void" style="text;align=left;verticalAlign=top;spacingLeft=4;spacingRight=4;overflow=hidden;rotatable=0;points=[[0,0.5],[1,0.5]];portConstraint=eastwest;labelBackgroundColor=none;fontColor=#143642;" parent="uml9mmWz9CMmcLbdp92g-19" vertex="1">
          <mxGeometry y="342" width="500" height="26" as="geometry" />
        </mxCell>
        <mxCell id="uml9mmWz9CMmcLbdp92g-32" value="+ GetYearlyStatistic(requests: List&lt;TourRequest&gt;):  List&lt;int&gt;" style="text;align=left;verticalAlign=top;spacingLeft=4;spacingRight=4;overflow=hidden;rotatable=0;points=[[0,0.5],[1,0.5]];portConstraint=eastwest;labelBackgroundColor=none;fontColor=#143642;" parent="uml9mmWz9CMmcLbdp92g-19" vertex="1">
          <mxGeometry y="368" width="500" height="26" as="geometry" />
        </mxCell>
        <mxCell id="uml9mmWz9CMmcLbdp92g-130" value="+ GetMonthlyStatistic(requests: List&lt;TourRequest&gt;, year: int):  List&lt;int&gt;" style="text;align=left;verticalAlign=top;spacingLeft=4;spacingRight=4;overflow=hidden;rotatable=0;points=[[0,0.5],[1,0.5]];portConstraint=eastwest;labelBackgroundColor=none;fontColor=#143642;" parent="uml9mmWz9CMmcLbdp92g-19" vertex="1">
          <mxGeometry y="394" width="500" height="26" as="geometry" />
        </mxCell>
        <mxCell id="uml9mmWz9CMmcLbdp92g-131" value="+ GetLanguageSuggestion():  string" style="text;align=left;verticalAlign=top;spacingLeft=4;spacingRight=4;overflow=hidden;rotatable=0;points=[[0,0.5],[1,0.5]];portConstraint=eastwest;labelBackgroundColor=none;fontColor=#143642;" parent="uml9mmWz9CMmcLbdp92g-19" vertex="1">
          <mxGeometry y="420" width="500" height="26" as="geometry" />
        </mxCell>
        <mxCell id="uml9mmWz9CMmcLbdp92g-133" value="+ GetLocationSuggestion():  string" style="text;align=left;verticalAlign=top;spacingLeft=4;spacingRight=4;overflow=hidden;rotatable=0;points=[[0,0.5],[1,0.5]];portConstraint=eastwest;labelBackgroundColor=none;fontColor=#143642;" parent="uml9mmWz9CMmcLbdp92g-19" vertex="1">
          <mxGeometry y="446" width="500" height="26" as="geometry" />
        </mxCell>
        <mxCell id="uml9mmWz9CMmcLbdp92g-33" value="User" style="swimlane;fontStyle=2;align=center;verticalAlign=top;childLayout=stackLayout;horizontal=1;startSize=26;horizontalStack=0;resizeParent=1;resizeLast=0;collapsible=1;marginBottom=0;rounded=0;shadow=0;strokeWidth=1;fillColor=#FAE5C7;strokeColor=#0F8B8D;labelBackgroundColor=none;fontColor=#143642;" parent="WIyWlLk6GJQsqaUBKTNV-1" vertex="1">
          <mxGeometry x="240" y="240" width="260" height="180" as="geometry">
            <mxRectangle x="300" y="240" width="160" height="26" as="alternateBounds" />
          </mxGeometry>
        </mxCell>
        <mxCell id="uml9mmWz9CMmcLbdp92g-34" value="Id: int " style="text;align=left;verticalAlign=top;spacingLeft=4;spacingRight=4;overflow=hidden;rotatable=0;points=[[0,0.5],[1,0.5]];portConstraint=eastwest;labelBackgroundColor=none;fontColor=#143642;" parent="uml9mmWz9CMmcLbdp92g-33" vertex="1">
          <mxGeometry y="26" width="260" height="26" as="geometry" />
        </mxCell>
        <mxCell id="uml9mmWz9CMmcLbdp92g-35" value="Username: string" style="text;align=left;verticalAlign=top;spacingLeft=4;spacingRight=4;overflow=hidden;rotatable=0;points=[[0,0.5],[1,0.5]];portConstraint=eastwest;labelBackgroundColor=none;fontColor=#143642;" parent="uml9mmWz9CMmcLbdp92g-33" vertex="1">
          <mxGeometry y="52" width="260" height="26" as="geometry" />
        </mxCell>
        <mxCell id="uml9mmWz9CMmcLbdp92g-36" value="Password: string " style="text;align=left;verticalAlign=top;spacingLeft=4;spacingRight=4;overflow=hidden;rotatable=0;points=[[0,0.5],[1,0.5]];portConstraint=eastwest;rounded=0;shadow=0;html=0;labelBackgroundColor=none;fontColor=#143642;" parent="uml9mmWz9CMmcLbdp92g-33" vertex="1">
          <mxGeometry y="78" width="260" height="32" as="geometry" />
        </mxCell>
        <mxCell id="uml9mmWz9CMmcLbdp92g-37" value="Type: UserType " style="text;align=left;verticalAlign=top;spacingLeft=4;spacingRight=4;overflow=hidden;rotatable=0;points=[[0,0.5],[1,0.5]];portConstraint=eastwest;rounded=0;shadow=0;html=0;labelBackgroundColor=none;fontColor=#143642;" parent="uml9mmWz9CMmcLbdp92g-33" vertex="1">
          <mxGeometry y="110" width="260" height="26" as="geometry" />
        </mxCell>
        <mxCell id="uml9mmWz9CMmcLbdp92g-127" value="" style="line;html=1;strokeWidth=1;align=left;verticalAlign=middle;spacingTop=-1;spacingLeft=3;spacingRight=3;rotatable=0;labelPosition=right;points=[];portConstraint=eastwest;labelBackgroundColor=none;fillColor=#FAE5C7;strokeColor=#0F8B8D;fontColor=#143642;" parent="uml9mmWz9CMmcLbdp92g-33" vertex="1">
          <mxGeometry y="136" width="260" height="8" as="geometry" />
        </mxCell>
        <mxCell id="uml9mmWz9CMmcLbdp92g-38" value="TourRequestStatus&#xa;&lt;&lt;enum&gt;&gt;" style="swimlane;fontStyle=2;align=center;verticalAlign=top;childLayout=stackLayout;horizontal=1;startSize=40;horizontalStack=0;resizeParent=1;resizeLast=0;collapsible=1;marginBottom=0;rounded=0;shadow=0;strokeWidth=1;fillColor=#FAE5C7;strokeColor=#0F8B8D;labelBackgroundColor=none;fontColor=#143642;" parent="WIyWlLk6GJQsqaUBKTNV-1" vertex="1">
          <mxGeometry x="80" y="440" width="260" height="130" as="geometry">
            <mxRectangle x="220" y="120" width="160" height="26" as="alternateBounds" />
          </mxGeometry>
        </mxCell>
        <mxCell id="uml9mmWz9CMmcLbdp92g-39" value="Pending" style="text;align=left;verticalAlign=top;spacingLeft=4;spacingRight=4;overflow=hidden;rotatable=0;points=[[0,0.5],[1,0.5]];portConstraint=eastwest;labelBackgroundColor=none;fontColor=#143642;" parent="uml9mmWz9CMmcLbdp92g-38" vertex="1">
          <mxGeometry y="40" width="260" height="26" as="geometry" />
        </mxCell>
        <mxCell id="uml9mmWz9CMmcLbdp92g-40" value="Accepted" style="text;align=left;verticalAlign=top;spacingLeft=4;spacingRight=4;overflow=hidden;rotatable=0;points=[[0,0.5],[1,0.5]];portConstraint=eastwest;labelBackgroundColor=none;fontColor=#143642;" parent="uml9mmWz9CMmcLbdp92g-38" vertex="1">
          <mxGeometry y="66" width="260" height="26" as="geometry" />
        </mxCell>
        <mxCell id="uml9mmWz9CMmcLbdp92g-41" value="Invalid" style="text;align=left;verticalAlign=top;spacingLeft=4;spacingRight=4;overflow=hidden;rotatable=0;points=[[0,0.5],[1,0.5]];portConstraint=eastwest;rounded=0;shadow=0;html=0;labelBackgroundColor=none;fontColor=#143642;" parent="uml9mmWz9CMmcLbdp92g-38" vertex="1">
          <mxGeometry y="92" width="260" height="32" as="geometry" />
        </mxCell>
        <mxCell id="uml9mmWz9CMmcLbdp92g-42" value="UserType&#xa;&lt;&lt;enum&gt;&gt;" style="swimlane;fontStyle=2;align=center;verticalAlign=top;childLayout=stackLayout;horizontal=1;startSize=40;horizontalStack=0;resizeParent=1;resizeLast=0;collapsible=1;marginBottom=0;rounded=0;shadow=0;strokeWidth=1;fillColor=#FAE5C7;strokeColor=#0F8B8D;labelBackgroundColor=none;fontColor=#143642;" parent="WIyWlLk6GJQsqaUBKTNV-1" vertex="1">
          <mxGeometry x="540" y="240" width="140" height="156" as="geometry">
            <mxRectangle x="220" y="120" width="160" height="26" as="alternateBounds" />
          </mxGeometry>
        </mxCell>
        <mxCell id="uml9mmWz9CMmcLbdp92g-43" value="host" style="text;align=left;verticalAlign=top;spacingLeft=4;spacingRight=4;overflow=hidden;rotatable=0;points=[[0,0.5],[1,0.5]];portConstraint=eastwest;labelBackgroundColor=none;fontColor=#143642;" parent="uml9mmWz9CMmcLbdp92g-42" vertex="1">
          <mxGeometry y="40" width="140" height="26" as="geometry" />
        </mxCell>
        <mxCell id="uml9mmWz9CMmcLbdp92g-44" value="tourist" style="text;align=left;verticalAlign=top;spacingLeft=4;spacingRight=4;overflow=hidden;rotatable=0;points=[[0,0.5],[1,0.5]];portConstraint=eastwest;labelBackgroundColor=none;fontColor=#143642;" parent="uml9mmWz9CMmcLbdp92g-42" vertex="1">
          <mxGeometry y="66" width="140" height="26" as="geometry" />
        </mxCell>
        <mxCell id="uml9mmWz9CMmcLbdp92g-45" value="guest" style="text;align=left;verticalAlign=top;spacingLeft=4;spacingRight=4;overflow=hidden;rotatable=0;points=[[0,0.5],[1,0.5]];portConstraint=eastwest;rounded=0;shadow=0;html=0;labelBackgroundColor=none;fontColor=#143642;" parent="uml9mmWz9CMmcLbdp92g-42" vertex="1">
          <mxGeometry y="92" width="140" height="32" as="geometry" />
        </mxCell>
        <mxCell id="uml9mmWz9CMmcLbdp92g-46" value="guide" style="text;align=left;verticalAlign=top;spacingLeft=4;spacingRight=4;overflow=hidden;rotatable=0;points=[[0,0.5],[1,0.5]];portConstraint=eastwest;rounded=0;shadow=0;html=0;labelBackgroundColor=none;fontColor=#143642;" parent="uml9mmWz9CMmcLbdp92g-42" vertex="1">
          <mxGeometry y="124" width="140" height="32" as="geometry" />
        </mxCell>
        <mxCell id="uml9mmWz9CMmcLbdp92g-66" value="Tour" style="swimlane;fontStyle=2;align=center;verticalAlign=top;childLayout=stackLayout;horizontal=1;startSize=26;horizontalStack=0;resizeParent=1;resizeLast=0;collapsible=1;marginBottom=0;rounded=0;shadow=0;strokeWidth=1;fillColor=#FAE5C7;strokeColor=#0F8B8D;labelBackgroundColor=none;fontColor=#143642;" parent="WIyWlLk6GJQsqaUBKTNV-1" vertex="1">
          <mxGeometry x="720" y="240" width="280" height="546" as="geometry">
            <mxRectangle x="220" y="120" width="160" height="26" as="alternateBounds" />
          </mxGeometry>
        </mxCell>
        <mxCell id="uml9mmWz9CMmcLbdp92g-67" value="Id: int" style="text;align=left;verticalAlign=top;spacingLeft=4;spacingRight=4;overflow=hidden;rotatable=0;points=[[0,0.5],[1,0.5]];portConstraint=eastwest;labelBackgroundColor=none;fontColor=#143642;" parent="uml9mmWz9CMmcLbdp92g-66" vertex="1">
          <mxGeometry y="26" width="280" height="26" as="geometry" />
        </mxCell>
        <mxCell id="uml9mmWz9CMmcLbdp92g-68" value="Status: TourRequestStatus " style="text;align=left;verticalAlign=top;spacingLeft=4;spacingRight=4;overflow=hidden;rotatable=0;points=[[0,0.5],[1,0.5]];portConstraint=eastwest;rounded=0;shadow=0;html=0;labelBackgroundColor=none;fontColor=#143642;" parent="uml9mmWz9CMmcLbdp92g-66" vertex="1">
          <mxGeometry y="52" width="280" height="26" as="geometry" />
        </mxCell>
        <mxCell id="uml9mmWz9CMmcLbdp92g-69" value="Name: string " style="text;align=left;verticalAlign=top;spacingLeft=4;spacingRight=4;overflow=hidden;rotatable=0;points=[[0,0.5],[1,0.5]];portConstraint=eastwest;rounded=0;shadow=0;html=0;labelBackgroundColor=none;fontColor=#143642;" parent="uml9mmWz9CMmcLbdp92g-66" vertex="1">
          <mxGeometry y="78" width="280" height="26" as="geometry" />
        </mxCell>
        <mxCell id="uml9mmWz9CMmcLbdp92g-70" value="City: string " style="text;align=left;verticalAlign=top;spacingLeft=4;spacingRight=4;overflow=hidden;rotatable=0;points=[[0,0.5],[1,0.5]];portConstraint=eastwest;rounded=0;shadow=0;html=0;labelBackgroundColor=none;fontColor=#143642;" parent="uml9mmWz9CMmcLbdp92g-66" vertex="1">
          <mxGeometry y="104" width="280" height="32" as="geometry" />
        </mxCell>
        <mxCell id="uml9mmWz9CMmcLbdp92g-71" value="Country: string " style="text;align=left;verticalAlign=top;spacingLeft=4;spacingRight=4;overflow=hidden;rotatable=0;points=[[0,0.5],[1,0.5]];portConstraint=eastwest;rounded=0;shadow=0;html=0;labelBackgroundColor=none;fontColor=#143642;" parent="uml9mmWz9CMmcLbdp92g-66" vertex="1">
          <mxGeometry y="136" width="280" height="32" as="geometry" />
        </mxCell>
        <mxCell id="uml9mmWz9CMmcLbdp92g-72" value="Description: string " style="text;align=left;verticalAlign=top;spacingLeft=4;spacingRight=4;overflow=hidden;rotatable=0;points=[[0,0.5],[1,0.5]];portConstraint=eastwest;rounded=0;shadow=0;html=0;labelBackgroundColor=none;fontColor=#143642;" parent="uml9mmWz9CMmcLbdp92g-66" vertex="1">
          <mxGeometry y="168" width="280" height="32" as="geometry" />
        </mxCell>
        <mxCell id="uml9mmWz9CMmcLbdp92g-73" value="Language: string " style="text;align=left;verticalAlign=top;spacingLeft=4;spacingRight=4;overflow=hidden;rotatable=0;points=[[0,0.5],[1,0.5]];portConstraint=eastwest;rounded=0;shadow=0;html=0;labelBackgroundColor=none;fontColor=#143642;" parent="uml9mmWz9CMmcLbdp92g-66" vertex="1">
          <mxGeometry y="200" width="280" height="32" as="geometry" />
        </mxCell>
        <mxCell id="uml9mmWz9CMmcLbdp92g-74" value="MaxTourists: int " style="text;align=left;verticalAlign=top;spacingLeft=4;spacingRight=4;overflow=hidden;rotatable=0;points=[[0,0.5],[1,0.5]];portConstraint=eastwest;rounded=0;shadow=0;html=0;labelBackgroundColor=none;fontColor=#143642;" parent="uml9mmWz9CMmcLbdp92g-66" vertex="1">
          <mxGeometry y="232" width="280" height="32" as="geometry" />
        </mxCell>
        <mxCell id="uml9mmWz9CMmcLbdp92g-75" value="Date: DateTime " style="text;align=left;verticalAlign=top;spacingLeft=4;spacingRight=4;overflow=hidden;rotatable=0;points=[[0,0.5],[1,0.5]];portConstraint=eastwest;rounded=0;shadow=0;html=0;labelBackgroundColor=none;fontColor=#143642;" parent="uml9mmWz9CMmcLbdp92g-66" vertex="1">
          <mxGeometry y="264" width="280" height="32" as="geometry" />
        </mxCell>
        <mxCell id="uml9mmWz9CMmcLbdp92g-76" value="Pictures: List&lt;string&gt; " style="text;align=left;verticalAlign=top;spacingLeft=4;spacingRight=4;overflow=hidden;rotatable=0;points=[[0,0.5],[1,0.5]];portConstraint=eastwest;rounded=0;shadow=0;html=0;labelBackgroundColor=none;fontColor=#143642;" parent="uml9mmWz9CMmcLbdp92g-66" vertex="1">
          <mxGeometry y="296" width="280" height="32" as="geometry" />
        </mxCell>
        <mxCell id="uml9mmWz9CMmcLbdp92g-77" value="Status: TourStatus " style="text;align=left;verticalAlign=top;spacingLeft=4;spacingRight=4;overflow=hidden;rotatable=0;points=[[0,0.5],[1,0.5]];portConstraint=eastwest;rounded=0;shadow=0;html=0;labelBackgroundColor=none;fontColor=#143642;" parent="uml9mmWz9CMmcLbdp92g-66" vertex="1">
          <mxGeometry y="328" width="280" height="32" as="geometry" />
        </mxCell>
        <mxCell id="uml9mmWz9CMmcLbdp92g-78" value="GroupId: int " style="text;align=left;verticalAlign=top;spacingLeft=4;spacingRight=4;overflow=hidden;rotatable=0;points=[[0,0.5],[1,0.5]];portConstraint=eastwest;rounded=0;shadow=0;html=0;labelBackgroundColor=none;fontColor=#143642;" parent="uml9mmWz9CMmcLbdp92g-66" vertex="1">
          <mxGeometry y="360" width="280" height="32" as="geometry" />
        </mxCell>
        <mxCell id="uml9mmWz9CMmcLbdp92g-79" value="CurrentCheckpoint: int" style="text;align=left;verticalAlign=top;spacingLeft=4;spacingRight=4;overflow=hidden;rotatable=0;points=[[0,0.5],[1,0.5]];portConstraint=eastwest;rounded=0;shadow=0;html=0;labelBackgroundColor=none;fontColor=#143642;" parent="uml9mmWz9CMmcLbdp92g-66" vertex="1">
          <mxGeometry y="392" width="280" height="32" as="geometry" />
        </mxCell>
        <mxCell id="uml9mmWz9CMmcLbdp92g-80" value="AvailablePlaces: int " style="text;align=left;verticalAlign=top;spacingLeft=4;spacingRight=4;overflow=hidden;rotatable=0;points=[[0,0.5],[1,0.5]];portConstraint=eastwest;rounded=0;shadow=0;html=0;labelBackgroundColor=none;fontColor=#143642;" parent="uml9mmWz9CMmcLbdp92g-66" vertex="1">
          <mxGeometry y="424" width="280" height="32" as="geometry" />
        </mxCell>
        <mxCell id="uml9mmWz9CMmcLbdp92g-81" value="Checkpoints: List&lt;string&gt; " style="text;align=left;verticalAlign=top;spacingLeft=4;spacingRight=4;overflow=hidden;rotatable=0;points=[[0,0.5],[1,0.5]];portConstraint=eastwest;rounded=0;shadow=0;html=0;labelBackgroundColor=none;fontColor=#143642;" parent="uml9mmWz9CMmcLbdp92g-66" vertex="1">
          <mxGeometry y="456" width="280" height="32" as="geometry" />
        </mxCell>
        <mxCell id="uml9mmWz9CMmcLbdp92g-82" value="Duration: float " style="text;align=left;verticalAlign=top;spacingLeft=4;spacingRight=4;overflow=hidden;rotatable=0;points=[[0,0.5],[1,0.5]];portConstraint=eastwest;rounded=0;shadow=0;html=0;labelBackgroundColor=none;fontColor=#143642;" parent="uml9mmWz9CMmcLbdp92g-66" vertex="1">
          <mxGeometry y="488" width="280" height="32" as="geometry" />
        </mxCell>
        <mxCell id="CkiQRDU_xRfsH0aowgbX-0" value="" style="endArrow=none;html=1;rounded=0;entryX=1.001;entryY=1.042;entryDx=0;entryDy=0;entryPerimeter=0;" edge="1" parent="uml9mmWz9CMmcLbdp92g-66" target="uml9mmWz9CMmcLbdp92g-82">
          <mxGeometry width="50" height="50" relative="1" as="geometry">
            <mxPoint y="520" as="sourcePoint" />
            <mxPoint x="50" y="470" as="targetPoint" />
          </mxGeometry>
        </mxCell>
        <mxCell id="uml9mmWz9CMmcLbdp92g-89" value="TourStatus&#xa;&lt;&lt;enum&gt;&gt;" style="swimlane;fontStyle=2;align=center;verticalAlign=top;childLayout=stackLayout;horizontal=1;startSize=40;horizontalStack=0;resizeParent=1;resizeLast=0;collapsible=1;marginBottom=0;rounded=0;shadow=0;strokeWidth=1;fillColor=#FAE5C7;strokeColor=#0F8B8D;labelBackgroundColor=none;fontColor=#143642;" parent="WIyWlLk6GJQsqaUBKTNV-1" vertex="1">
          <mxGeometry x="720" y="860" width="280" height="199" as="geometry">
            <mxRectangle x="220" y="120" width="160" height="26" as="alternateBounds" />
          </mxGeometry>
        </mxCell>
        <mxCell id="uml9mmWz9CMmcLbdp92g-90" value="Active" style="text;align=left;verticalAlign=top;spacingLeft=4;spacingRight=4;overflow=hidden;rotatable=0;points=[[0,0.5],[1,0.5]];portConstraint=eastwest;labelBackgroundColor=none;fontColor=#143642;" parent="uml9mmWz9CMmcLbdp92g-89" vertex="1">
          <mxGeometry y="40" width="280" height="26" as="geometry" />
        </mxCell>
        <mxCell id="uml9mmWz9CMmcLbdp92g-91" value="InPrepartation" style="text;align=left;verticalAlign=top;spacingLeft=4;spacingRight=4;overflow=hidden;rotatable=0;points=[[0,0.5],[1,0.5]];portConstraint=eastwest;labelBackgroundColor=none;fontColor=#143642;" parent="uml9mmWz9CMmcLbdp92g-89" vertex="1">
          <mxGeometry y="66" width="280" height="26" as="geometry" />
        </mxCell>
        <mxCell id="uml9mmWz9CMmcLbdp92g-92" value="Finished" style="text;align=left;verticalAlign=top;spacingLeft=4;spacingRight=4;overflow=hidden;rotatable=0;points=[[0,0.5],[1,0.5]];portConstraint=eastwest;rounded=0;shadow=0;html=0;labelBackgroundColor=none;fontColor=#143642;" parent="uml9mmWz9CMmcLbdp92g-89" vertex="1">
          <mxGeometry y="92" width="280" height="32" as="geometry" />
        </mxCell>
        <mxCell id="uml9mmWz9CMmcLbdp92g-93" value="Canceled" style="text;align=left;verticalAlign=top;spacingLeft=4;spacingRight=4;overflow=hidden;rotatable=0;points=[[0,0.5],[1,0.5]];portConstraint=eastwest;rounded=0;shadow=0;html=0;labelBackgroundColor=none;fontColor=#143642;" parent="uml9mmWz9CMmcLbdp92g-89" vertex="1">
          <mxGeometry y="124" width="280" height="32" as="geometry" />
        </mxCell>
        <mxCell id="uml9mmWz9CMmcLbdp92g-94" value="GotGuide" style="text;align=left;verticalAlign=top;spacingLeft=4;spacingRight=4;overflow=hidden;rotatable=0;points=[[0,0.5],[1,0.5]];portConstraint=eastwest;rounded=0;shadow=0;html=0;labelBackgroundColor=none;fontColor=#143642;" parent="uml9mmWz9CMmcLbdp92g-89" vertex="1">
          <mxGeometry y="156" width="280" height="32" as="geometry" />
        </mxCell>
        <mxCell id="uml9mmWz9CMmcLbdp92g-119" style="edgeStyle=orthogonalEdgeStyle;rounded=0;orthogonalLoop=1;jettySize=auto;html=1;exitX=0;exitY=0.5;exitDx=0;exitDy=0;entryX=0.75;entryY=1;entryDx=0;entryDy=0;labelBackgroundColor=none;strokeColor=#A8201A;fontColor=default;" parent="WIyWlLk6GJQsqaUBKTNV-1" source="uml9mmWz9CMmcLbdp92g-77" target="uml9mmWz9CMmcLbdp92g-33" edge="1">
          <mxGeometry relative="1" as="geometry" />
        </mxCell>
        <mxCell id="uml9mmWz9CMmcLbdp92g-122" style="edgeStyle=orthogonalEdgeStyle;rounded=0;orthogonalLoop=1;jettySize=auto;html=1;exitX=0;exitY=0.5;exitDx=0;exitDy=0;entryX=0;entryY=0.5;entryDx=0;entryDy=0;labelBackgroundColor=none;strokeColor=#A8201A;fontColor=default;" parent="WIyWlLk6GJQsqaUBKTNV-1" source="uml9mmWz9CMmcLbdp92g-21" target="uml9mmWz9CMmcLbdp92g-37" edge="1">
          <mxGeometry relative="1" as="geometry" />
        </mxCell>
        <mxCell id="uml9mmWz9CMmcLbdp92g-136" value="0..*" style="text;html=1;align=center;verticalAlign=middle;whiteSpace=wrap;rounded=0;" parent="WIyWlLk6GJQsqaUBKTNV-1" vertex="1">
          <mxGeometry x="450" y="440" width="60" height="30" as="geometry" />
        </mxCell>
        <mxCell id="uml9mmWz9CMmcLbdp92g-137" value="0..1" style="text;html=1;align=center;verticalAlign=middle;whiteSpace=wrap;rounded=0;" parent="WIyWlLk6GJQsqaUBKTNV-1" vertex="1">
          <mxGeometry x="640" y="540" width="60" height="30" as="geometry" />
        </mxCell>
        <mxCell id="uml9mmWz9CMmcLbdp92g-138" value="0..*" style="text;html=1;align=center;verticalAlign=middle;whiteSpace=wrap;rounded=0;" parent="WIyWlLk6GJQsqaUBKTNV-1" vertex="1">
          <mxGeometry x="150" y="320" width="60" height="30" as="geometry" />
        </mxCell>
        <mxCell id="uml9mmWz9CMmcLbdp92g-140" value="0..1" style="text;html=1;align=center;verticalAlign=middle;whiteSpace=wrap;rounded=0;" parent="WIyWlLk6GJQsqaUBKTNV-1" vertex="1">
          <mxGeometry x="50" y="600" width="60" height="30" as="geometry" />
        </mxCell>
      </root>
    </mxGraphModel>
  </diagram>
</mxfile>
